#!OML:ASF G:\JayActor3\Patient Classification 1\Patient 1\Session 6\male.ASF
:FULLY-SPECIFIED
:DEGREES
1706
root -6.08501 16.338 -4.17451 5.34164 -64.1104 -11.7267
lowerback 3.94736 -1.70963 3.87838
upperback -0.16642 -2.08215 1.0257
thorax -2.48468 -1.08509 -0.99006
lowerneck 8.8507 -10.9304 -3.36911
upperneck -0.661231 -15.0727 -3.68862
head -1.71574 -7.42545 0.00922315
rclavicle -2.23384e-014 -7.55382e-015
rhumerus -4.85715 31.3529 -79.8799
rradius 79.1303
rwrist 8.78557
rhand -51.2366 5.14001
rfingers 7.12502
rthumb -23.7755 -23.409
lclavicle -2.23384e-014 -7.55382e-015
lhumerus 6.64414 -19.7637 52.1415
lradius 78.984
lwrist 29.8884
lhand -26.638 9.66781
lfingers 7.12502
lthumb -0.0704916 39.6475
rfemur -5.68177 -2.19601 27.0833
rtibia 33.8951
rfoot -24.9035 -13.0236
rtoes -0.488887
lfemur -14.1474 4.6674 -5.10829
ltibia 46.2618
lfoot -17.7403 -3.88588
ltoes -11.662
1707
root -6.07428 16.3443 -4.14014 5.37831 -64.8691 -11.7928
lowerback 3.91139 -1.79818 3.71722
upperback -0.144186 -2.21043 1.00554
thorax -2.44212 -1.14618 -0.914302
lowerneck 8.92233 -11.1941 -3.41907
upperneck -0.686163 -15.4394 -3.79005
head -1.74072 -7.60439 0.0062407
rclavicle 2.11333e-014 -1.5704e-014
rhumerus -4.15079 32.2496 -80.15
rradius 78.8637
rwrist 8.70338
rhand -51.1863 5.24847
rfingers 7.12502
rthumb -23.7272 -23.3068
lclavicle 2.11333e-014 -1.5704e-014
lhumerus 5.70925 -19.0485 51.8885
lradius 79.1324
lwrist 29.8436
lhand -26.7693 9.692
lfingers 7.12502
lthumb -0.197289 39.6717
rfemur -5.62654 -1.76674 26.88
rtibia 33.8532
rfoot -24.6357 -12.8463
rtoes -0.501286
lfemur -13.6264 4.17445 -4.53377
ltibia 45.8866
lfoot -17.3233 -3.21388
ltoes -11.4483
1708
root -6.06307 16.3508 -4.10454 5.42979 -65.6331 -11.8674
lowerback 3.86049 -1.88265 3.55873
upperback -0.115396 -2.33387 0.985939
thorax -2.3837 -1.20473 -0.840633
lowerneck 8.97672 -11.4229 -3.46054
upperneck -0.725584 -15.7575 -3.86583
head -1.76615 -7.75937 0.00744461
rclavicle -3.55452e-014 4.57205e-015
rhumerus -3.44423 33.1406 -80.3893
rradius 78.6123
rwrist 8.61332
rhand -51.1404 5.35156
rfingers 7.12502
rthumb -23.6833 -23.2094
lclavicle -3.55452e-014 4.57205e-015
lhumerus 4.79794 -18.3468 51.6214
lradius 79.2874
lwrist 29.8086
lhand -26.9277 9.72797
lfingers 7.12502
lthumb -0.350244 39.7074
rfemur -5.58866 -1.30805 26.6801
rtibia 33.8175
rfoot -24.3743 -12.6926
rtoes -0.524325
lfemur -13.0852 3.65893 -3.97118
ltibia 45.4692
lfoot -16.7569 -2.74429
ltoes -11.1068
1709
root -6.05114 16.3575 -4.06754 5.52248 -66.4006 -11.9777
lowerback 3.80169 -1.96357 3.41411
upperback -0.0854957 -2.45201 0.97268
thorax -2.31926 -1.26084 -0.769102
lowerneck 9.02625 -11.6182 -3.49686
upperneck -0.783731 -16.0301 -3.92133
head -1.7957 -7.89154 0.0127896
rclavicle 4.63417e-015 -9.54166e-015
rhumerus -2.74451 34.027 -80.5981
rradius 78.374
rwrist 8.51966
rhand -51.1051 5.46716
rfingers 7.12502
rthumb -23.6494 -23.0982
lclavicle 4.63417e-015 -9.54166e-015
lhumerus 3.90226 -17.657 51.3487
lradius 79.4471
lwrist 29.7873
lhand -27.0983 9.7695
lfingers 7.12502
lthumb -0.515009 39.7486
rfemur -5.5683 -0.826733 26.4927
rtibia 33.7836
rfoot -24.1119 -12.5611
rtoes -0.575077
lfemur -12.5312 3.12271 -3.41501
ltibia 45.019
lfoot -16.0406 -2.47214
ltoes -10.5737
1710
root -6.03899 16.3645 -4.02844 5.61305 -67.177 -12.0854
lowerback 3.7439 -2.03935 3.27152
upperback -0.0582326 -2.56282 0.961432
thorax -2.25732 -1.3135 -0.697264
lowerneck 9.07601 -11.7873 -3.52926
upperneck -0.846666 -16.268 -3.97411
head -1.82708 -8.00624 0.0174636
rclavicle 3.11098e-014 -7.95139e-016
rhumerus -2.06661 34.9114 -80.782
rradius 78.1517
rwrist 8.42453
rhand -51.0745 5.55654
rfingers 7.12502
rthumb -23.62 -23.0126
lclavicle 3.11098e-014 -7.95139e-016
lhumerus 3.00779 -16.9837 51.0786
lradius 79.614
lwrist 29.7786
lhand -27.259 9.80887
lfingers 7.12502
lthumb -0.670286 39.7876
rfemur -5.55109 -0.344122 26.291
rtibia 33.7478
rfoot -23.8392 -12.4326
rtoes -0.678703
lfemur -11.9484 2.56479 -2.89328
ltibia 44.5375
lfoot -15.1946 -2.36528
ltoes -9.79533
1711
root -6.02678 16.3717 -3.98732 5.72247 -67.9562 -12.2163
lowerback 3.69855 -2.10976 3.14259
upperback -0.040262 -2.66481 0.954516
thorax -2.21156 -1.36228 -0.628644
lowerneck 9.13332 -11.9319 -3.55131
upperneck -0.904312 -16.4728 -4.03419
head -1.85973 -8.10434 0.0177871
rclavicle -3.18739e-014 1.05356e-014
rhumerus -1.42664 35.7912 -80.9504
rradius 77.9477
rwrist 8.31634
rhand -51.0543 5.65482
rfingers 7.12502
rthumb -23.6007 -22.9169
lclavicle -3.18739e-014 1.05356e-014
lhumerus 2.1076 -16.3344 50.8184
lradius 79.7868
lwrist 29.7769
lhand -27.3866 9.84147
lfingers 7.12502
lthumb -0.793465 39.8197
rfemur -5.53153 0.129634 26.085
rtibia 33.7074
rfoot -23.5589 -12.2976
rtoes -0.817526
lfemur -11.3367 1.9915 -2.39685
ltibia 44.0249
lfoot -14.257 -2.39336
ltoes -8.8085
1712
root -6.01403 16.3791 -3.94388 5.85445 -68.734 -12.3672
lowerback 3.66862 -2.17369 3.03328
upperback -0.0382299 -2.75607 0.950303
thorax -2.1909 -1.40638 -0.567948
lowerneck 9.19147 -12.0579 -3.57604
upperneck -0.941642 -16.6526 -4.09741
head -1.88598 -8.19066 0.0158904
rclavicle 7.54139e-015 -1.2424e-014
rhumerus -0.832004 36.6605 -81.1021
rradius 77.7672
rwrist 8.20325
rhand -51.0314 5.70115
rfingers 7.12502
rthumb -23.5788 -22.8733
lclavicle 7.54139e-015 -1.2424e-014
lhumerus 1.2 -15.7173 50.5742
lradius 79.9672
lwrist 29.7842
lhand -27.483 9.86535
lfingers 7.12502
lthumb -0.886582 39.8433
rfemur -5.51735 0.577475 25.8674
rtibia 33.6617
rfoot -23.2664 -12.142
rtoes -0.984455
lfemur -10.7023 1.40196 -1.93576
ltibia 43.4772
lfoot -13.2619 -2.50671
ltoes -7.65889
1713
root -6.00069 16.3866 -3.89823 5.99889 -69.5009 -12.5303
lowerback 3.66095 -2.23398 2.94096
upperback -0.054309 -2.8403 0.947481
thorax -2.20157 -1.44762 -0.514357
lowerneck 9.25332 -12.168 -3.59975
upperneck -0.952638 -16.8109 -4.16914
head -1.90514 -8.26693 0.00971761
rclavicle -1.66979e-014 -3.57812e-015
rhumerus -0.293887 37.5116 -81.2467
rradius 77.6137
rwrist 8.09599
rhand -51.004 5.72677
rfingers 7.12502
rthumb -23.5524 -22.8511
lclavicle -1.66979e-014 -3.57812e-015
lhumerus 0.281576 -15.1364 50.3469
lradius 80.1555
lwrist 29.8019
lhand -27.5442 9.88669
lfingers 7.12502
lthumb -0.945713 39.8643
rfemur -5.50645 0.985488 25.6346
rtibia 33.6107
rfoot -22.9645 -11.9567
rtoes -1.14998
lfemur -10.044 0.795986 -1.51617
ltibia 42.8895
lfoot -12.2542 -2.67907
ltoes -6.55846
1714
root -5.9867 16.3942 -3.85028 6.18304 -70.2523 -12.7326
lowerback 3.66638 -2.29089 2.87582
upperback -0.0826369 -2.91803 0.947866
thorax -2.23294 -1.48617 -0.472084
lowerneck 9.30122 -12.261 -3.63771
upperneck -0.930501 -16.9449 -4.2276
head -1.90838 -8.3329 0.00586597
rclavicle -3.83903e-015 -8.94531e-015
rhumerus 0.20059 38.3374 -81.3777
rradius 77.4881
rwrist 7.99845
rhand -50.9787 5.76523
rfingers 7.12502
rthumb -23.5281 -22.8158
lclavicle -3.83903e-015 -8.94531e-015
lhumerus -0.642181 -14.5908 50.1355
lradius 80.3541
lwrist 29.8294
lhand -27.5842 9.90168
lfingers 7.12502
lthumb -0.984295 39.8792
rfemur -5.50045 1.3505 25.3963
rtibia 33.5533
rfoot -22.655 -11.7407
rtoes -1.30057
lfemur -9.36472 0.181975 -1.12966
ltibia 42.2596
lfoot -11.2491 -2.89839
ltoes -5.66012
1715
root -5.97218 16.4018 -3.79993 6.38212 -70.9871 -12.9505
lowerback 3.67558 -2.34531 2.82711
upperback -0.113386 -2.99154 0.949237
thorax -2.26941 -1.52285 -0.437913
lowerneck 9.33079 -12.3392 -3.67973
upperneck -0.89159 -17.0572 -4.27438
head -1.90137 -8.38935 0.00295371
rclavicle -1.68346e-015 -1.60022e-014
rhumerus 0.668016 39.129 -81.4882
rradius 77.3865
rwrist 7.92919
rhand -50.9467 5.83161
rfingers 7.12502
rthumb -23.4975 -22.7533
lclavicle -1.68346e-015 -1.60022e-014
lhumerus -1.55321 -14.0758 49.9336
lradius 80.5561
lwrist 29.8711
lhand -27.6144 9.92512
lfingers 7.12502
lthumb -1.01345 39.9025
rfemur -5.49597 1.67164 25.1427
rtibia 33.4903
rfoot -22.3415 -11.4952
rtoes -1.43246
lfemur -8.65965 -0.439684 -0.788788
ltibia 41.5823
lfoot -10.226 -3.17796
ltoes -4.95552
1716
root -5.95741 16.4091 -3.74735 6.66511 -71.7073 -13.2592
lowerback 3.67629 -2.39605 2.81044
upperback -0.137365 -3.05922 0.959486
thorax -2.29506 -1.55681 -0.413342
lowerneck 9.34263 -12.4088 -3.71198
upperneck -0.849854 -17.156 -4.32115
head -1.89121 -8.43946 -0.00326448
rclavicle -2.18912e-014 -6.01324e-015
rhumerus 1.12239 39.8888 -81.5689
rradius 77.309
rwrist 7.88054
rhand -50.9109 5.91831
rfingers 7.12502
rthumb -23.4631 -22.671
lclavicle -2.18912e-014 -6.01324e-015
lhumerus -2.43446 -13.5884 49.74
lradius 80.75
lwrist 29.925
lhand -27.6374 9.95245
lfingers 7.12502
lthumb -1.03575 39.9297
rfemur -5.48964 1.96811 24.9034
rtibia 33.422
rfoot -22.0284 -11.2327
rtoes -1.55545
lfemur -7.92602 -1.05362 -0.464873
ltibia 40.8581
lfoot -9.16458 -3.53843
ltoes -4.54977
1717
root -5.9423 16.4163 -3.69231 6.98652 -72.4164 -13.6061
lowerback 3.6567 -2.44248 2.80744
upperback -0.149711 -3.12159 0.973603
thorax -2.29767 -1.58801 -0.393992
lowerneck 9.34098 -12.4699 -3.73086
upperneck -0.819163 -17.2414 -4.36212
head -1.88305 -8.48284 -0.0106363
rclavicle 2.94481e-014 -1.26228e-014
rhumerus 1.57798 40.6191 -81.6109
rradius 77.2531
rwrist 7.83875
rhand -50.8693 6.03661
rfingers 7.12502
rthumb -23.4233 -22.5578
lclavicle 2.94481e-014 -1.26228e-014
lhumerus -3.26899 -13.1217 49.5556
lradius 80.9227
lwrist 29.9844
lhand -27.6439 9.97413
lfingers 7.12502
lthumb -1.04197 39.9513
rfemur -5.48663 2.24615 24.6566
rtibia 33.3518
rfoot -21.7158 -10.9526
rtoes -1.67617
lfemur -7.16791 -1.66892 -0.185362
ltibia 40.0843
lfoot -8.09699 -3.96461
ltoes -4.61894
1718
root -5.9267 16.423 -3.63489 7.32613 -73.1201 -13.9675
lowerback 3.61219 -2.48246 2.80638
upperback -0.148934 -3.17656 0.989969
thorax -2.27251 -1.61521 -0.375472
lowerneck 9.33183 -12.5227 -3.73731
upperneck -0.805945 -17.3146 -4.39753
head -1.87999 -8.51973 -0.0182902
rclavicle 5.88651e-014 -6.48535e-015
rhumerus 2.04501 41.3196 -81.6087
rradius 77.2117
rwrist 7.80442
rhand -50.8178 6.14202
rfingers 7.12502
rthumb -23.3738 -22.4587
lclavicle 5.88651e-014 -6.48535e-015
lhumerus -4.04938 -12.6741 49.3829
lradius 81.0688
lwrist 30.0394
lhand -27.6296 9.99078
lfingers 7.12502
lthumb -1.02814 39.9681
rfemur -5.49311 2.51912 24.3943
rtibia 33.2856
rfoot -21.4046 -10.6567
rtoes -1.79954
lfemur -6.38824 -2.28317 0.0373139
ltibia 39.2606
lfoot -7.06726 -4.49885
ltoes -5.16388
1719
root -5.9109 16.429 -3.57535 7.70739 -73.8171 -14.3667
lowerback 3.54343 -2.51642 2.8105
upperback -0.138031 -3.22444 1.01213
thorax -2.22306 -1.63866 -0.355875
lowerneck 9.31891 -12.5652 -3.73983
upperneck -0.806565 -17.3739 -4.42792
head -1.88076 -8.54933 -0.025208
rclavicle 7.237e-015 -1.59183e-014
rhumerus 2.52237 41.9946 -81.5615
rradius 77.1822
rwrist 7.76315
rhand -50.7627 6.2596
rfingers 7.12502
rthumb -23.321 -22.3478
lclavicle 7.237e-015 -1.59183e-014
lhumerus -4.78263 -12.2417 49.2292
lradius 81.189
lwrist 30.083
lhand -27.5902 10.002
lfingers 7.12502
lthumb -0.990089 39.9795
rfemur -5.51387 2.79811 24.1269
rtibia 33.2318
rfoot -21.0967 -10.3531
rtoes -1.93303
lfemur -5.59434 -2.88432 0.211132
ltibia 38.3852
lfoot -6.14563 -5.17
ltoes -6.34663
1720
root -5.89457 16.4343 -3.51361 8.09374 -74.5091 -14.7573
lowerback 3.45099 -2.54469 2.80816
upperback -0.122082 -3.26603 1.03749
thorax -2.15439 -1.6587 -0.331208
lowerneck 9.29529 -12.5982 -3.74457
upperneck -0.813693 -17.4206 -4.45733
head -1.88156 -8.57258 -0.0325408
rclavicle 2.55283e-014 5.69021e-015
rhumerus 3.01554 42.649 -81.4651
rradius 77.1606
rwrist 7.70518
rhand -50.6954 6.32875
rfingers 7.12502
rthumb -23.2564 -22.2868
lclavicle 2.55283e-014 5.69021e-015
lhumerus -5.47818 -11.8184 49.1008
lradius 81.2908
lwrist 30.1102
lhand -27.5378 10.0181
lfingers 7.12502
lthumb -0.939472 39.9958
rfemur -5.56379 3.08493 23.8382
rtibia 33.1986
rfoot -20.793 -10.0355
rtoes -2.05668
lfemur -4.80411 -3.46262 0.316865
ltibia 37.4594
lfoot -5.37079 -5.98255
ltoes -8.09393
